<svg xmlns="http://www.w3.org/2000/svg" width="50" height="50" viewBox="0 0 50 50" fill="none">
  <path d="M50 33.8197V47.6203C50 48.9328 49.1594 50 48.12 50H0.787736C0.35234 50 0 49.554 0 49.0029V42.2045C0 41.6534 0.35234 41.2074 0.787736 41.2074H42.475C42.7946 41.2074 43.0538 40.8793 43.0538 40.4747V34.1669C43.0538 33.1985 42.4347 32.4148 41.6696 32.4148H0.843104C0.377508 32.4148 0 31.9369 0 31.3476V1.06722C0 0.477859 0.377508 0 0.843104 0H6.94367C13.7313 0 20.1893 3.18891 25.1422 8.78942C26.7126 10.5639 28.1321 12.5804 29.3628 14.8168L31.4793 18.6652C31.6102 18.9041 31.4768 19.2322 31.2453 19.2322H28.6203C28.5373 19.2322 28.4593 19.1876 28.4064 19.108L26.4106 16.2122C23.1615 11.4973 18.4577 8.78942 13.5149 8.78942H7.22555C7.06951 8.78942 6.94367 8.94871 6.94367 9.14622V23.2717C6.94367 23.4693 7.06951 23.6285 7.22555 23.6285H41.9464C46.3935 23.6285 49.9975 28.1905 49.9975 33.8197H50Z" fill="#37B36D"/>
</svg>