<svg width="284" height="287" viewBox="0 0 284 287" fill="none" xmlns="http://www.w3.org/2000/svg">
<path d="M279.666 284.5C280.502 284.469 281.902 284.315 282.615 284.821C282.961 285.066 282.972 285.189 283.05 285.575C282.921 286.071 282.8 286.3 282.474 286.695C281.673 286.73 280.182 286.912 279.517 286.388C279.329 286.238 279.194 286.101 279.152 285.861C279.054 285.3 279.349 284.918 279.666 284.5Z" fill="#041F54"/>
<path d="M101.7 0.386191C106.423 -0.146807 112.145 1.42731 116.214 3.78647C122.228 7.27371 125.394 12.0693 127.176 18.6613L132.082 18.559C135.982 18.5032 139.883 18.4772 143.783 18.4809C145.869 18.4762 148.239 18.2282 150.271 18.6615C150.443 18.6989 150.613 18.7424 150.782 18.792C150.95 18.8415 151.117 18.8969 151.281 18.9583C151.446 19.0197 151.608 19.0869 151.768 19.1598C151.928 19.2327 152.085 19.3113 152.239 19.3954C152.393 19.4795 152.544 19.569 152.692 19.6638C152.84 19.7587 152.984 19.8587 153.125 19.9638C153.266 20.0689 153.402 20.1789 153.535 20.2938C153.668 20.4086 153.797 20.5281 153.921 20.6521C156.289 23.0213 156.168 25.8277 156.141 28.9036C166.819 29.0176 177.496 29.0526 188.174 29.0084C190.926 29.0087 193.249 29.3038 195.279 31.3604C196.681 32.7807 197.673 34.6493 197.914 36.642C198.123 38.3656 198.046 40.1562 198.051 41.8912L198.078 49.8869L198.107 79.0077L198.003 173.77C203.347 166.692 210.92 162.228 219.495 160.243L219.497 157.795C218.749 157.473 217.989 157.087 217.293 156.665C212.561 153.791 210.726 149.334 209.458 144.199C208.738 144.162 207.952 144.042 207.279 143.777C207.19 143.741 207.102 143.703 207.014 143.663C206.927 143.623 206.84 143.58 206.755 143.536C206.67 143.491 206.586 143.445 206.503 143.396C206.42 143.347 206.338 143.296 206.258 143.243C206.177 143.19 206.098 143.136 206.021 143.079C205.943 143.022 205.867 142.963 205.792 142.902C205.718 142.842 205.645 142.779 205.573 142.715C205.501 142.65 205.432 142.584 205.363 142.516C205.295 142.448 205.229 142.379 205.164 142.308C205.099 142.236 205.037 142.164 204.976 142.089C204.915 142.015 204.856 141.939 204.798 141.861C204.741 141.784 204.686 141.705 204.633 141.625C204.58 141.545 204.529 141.464 204.479 141.381C204.43 141.298 204.383 141.214 204.339 141.129C204.294 141.044 204.251 140.957 204.211 140.87C204.17 140.783 204.132 140.695 204.096 140.606C203.451 139.038 203.441 137.172 204.096 135.605C204.676 134.217 205.585 133.34 206.953 132.761L207.68 128.864C206.807 128.11 204.733 126.634 204.467 125.542C204.033 123.763 208.061 117.705 209.244 116.288C213.252 111.485 219.567 107.933 225.812 107.383C230.257 106.992 235.601 107.837 239.097 110.814C240.889 112.339 241.788 114.227 241.985 116.56C242.455 116.747 242.934 116.933 243.381 117.17C245.192 118.131 246.61 119.638 247.191 121.635C248.195 125.085 247.127 129.466 245.434 132.523C246.004 132.752 246.535 132.996 247.025 133.373C247.107 133.436 247.187 133.5 247.266 133.567C247.345 133.634 247.422 133.703 247.497 133.774C247.572 133.845 247.646 133.918 247.717 133.992C247.789 134.067 247.858 134.144 247.925 134.222C247.992 134.301 248.058 134.381 248.121 134.463C248.184 134.544 248.245 134.628 248.303 134.713C248.362 134.798 248.418 134.885 248.472 134.973C248.526 135.061 248.578 135.15 248.628 135.241C248.677 135.332 248.724 135.424 248.768 135.517C248.813 135.61 248.855 135.705 248.894 135.8C248.934 135.895 248.971 135.992 249.005 136.089C249.04 136.187 249.072 136.285 249.101 136.384C249.13 136.483 249.157 136.583 249.181 136.684C249.205 136.784 249.226 136.885 249.244 136.987C249.263 137.089 249.279 137.191 249.292 137.293C249.306 137.396 249.316 137.498 249.324 137.601C249.455 139.137 249.034 140.731 248.016 141.907C246.713 143.414 245.023 143.717 243.15 143.866C243.021 145.036 242.776 146.181 242.417 147.302C240.814 152.397 237.467 155.464 232.853 157.888C232.837 158.746 232.885 159.602 232.922 160.459C238.31 161.22 243.457 163.526 247.887 166.665C254.805 171.566 259.665 177.309 261.085 185.948C261.287 187.176 261.795 190.991 260.923 191.932C260.584 192.298 259.981 192.339 259.517 192.38C255.803 192.701 251.026 192.466 247.172 192.484L220.347 192.529C220.144 195.463 220.272 198.462 220.283 201.404C223.578 201.243 243.901 201.001 245.449 201.688C246.289 202.061 247.115 202.951 247.541 203.753C249.377 207.212 250.469 211.222 251.979 214.848C254.221 220.231 256.873 225.443 258.969 230.895C262.852 231.652 266.722 233.498 269.534 236.311C271.11 237.888 272.429 239.792 273.037 241.957C273.817 244.735 273.427 248.167 273.41 251.057L273.361 262.096C273.451 262.156 273.539 262.217 273.629 262.276C274.532 262.868 275.208 263.557 275.677 264.544C276.299 265.853 276.387 267.563 275.844 268.914C275.264 270.357 274.173 271.062 272.825 271.678C269.989 272.35 261.805 271.87 258.332 271.978C257.783 273.281 257.431 274.651 256.843 275.945C256.733 276.188 256.617 276.429 256.496 276.666C256.374 276.904 256.247 277.139 256.113 277.37C255.98 277.601 255.841 277.829 255.697 278.054C255.553 278.278 255.403 278.499 255.247 278.717C255.092 278.934 254.932 279.147 254.766 279.356C254.6 279.566 254.429 279.771 254.253 279.971C254.077 280.172 253.897 280.369 253.711 280.561C253.526 280.753 253.335 280.94 253.14 281.122C252.946 281.305 252.747 281.483 252.543 281.656C252.34 281.828 252.132 281.996 251.92 282.159C251.708 282.321 251.492 282.478 251.273 282.63C251.053 282.782 250.83 282.929 250.603 283.069C250.377 283.211 250.146 283.346 249.913 283.476C249.68 283.605 249.443 283.729 249.203 283.847C248.964 283.965 248.722 284.077 248.477 284.183C248.232 284.289 247.984 284.389 247.734 284.482C254.391 284.649 261.09 284.481 267.752 284.473C270.232 284.47 272.894 284.264 275.357 284.462C275.708 284.49 276.032 284.572 276.295 284.822C276.593 285.105 276.665 285.373 276.699 285.762C276.59 286.001 276.506 286.095 276.286 286.253C275.304 286.959 273.475 286.777 272.308 286.78L66.8011 286.739L16.661 286.792L5.55131 286.789C4.39382 286.795 2.33823 287.041 1.27432 286.789C0.860498 286.692 0.593574 286.367 0.412285 285.998C0.237734 285.642 0.290263 285.443 0.418349 285.09C0.786845 284.768 1.09068 284.648 1.57402 284.564C2.7923 284.352 4.09824 284.515 5.33167 284.524C7.30511 284.538 9.28027 284.513 11.2538 284.501C10.9303 284.227 10.6012 283.952 10.3001 283.654C8.48325 281.852 7.32025 278.889 7.28064 276.346C7.17822 269.769 7.26362 263.181 7.26301 256.603L7.24575 221.709L7.24587 120.057L7.23509 64.6645L7.23755 47.8162C7.23699 44.8378 7.05327 41.7119 7.32157 38.7488C7.52648 36.4862 8.87513 33.9933 10.4488 32.3875C10.6195 32.2131 10.7963 32.0452 10.9791 31.8836C11.1619 31.7219 11.3503 31.567 11.5442 31.419C11.7381 31.2709 11.9371 31.13 12.1412 30.9962C12.3453 30.8625 12.5539 30.7362 12.7671 30.6174C12.9802 30.4987 13.1974 30.3877 13.4185 30.2846C13.6397 30.1815 13.8642 30.0865 14.0922 29.9996C14.3202 29.9126 14.551 29.834 14.7846 29.7637C15.0183 29.6932 15.2541 29.6313 15.4922 29.578C18.5075 28.9326 23.9167 29.2894 27.2337 29.2912L50.0354 29.2625C49.9985 26.1511 49.7846 22.9976 52.2081 20.6068C53.2962 19.5333 54.739 18.8479 56.2311 18.5536C59.1491 17.9779 62.5467 18.3608 65.5338 18.3975C69.9375 18.4565 74.3414 18.4854 78.7455 18.4841C79.5394 15.104 81.28 11.88 83.5241 9.24735C88.1899 3.77405 94.6062 0.959297 101.7 0.386191Z" fill="#041F54"/>
<path d="M245.868 204.762C247.138 207.608 248.227 210.557 249.346 213.466C248.051 211.288 246.79 207.827 244.312 206.909C245.074 206.589 245.479 205.472 245.868 204.762Z" fill="#FEFEFE"/>
<path d="M156.211 31.2144L158.194 31.21C158.063 34.9415 158.086 38.7747 158.187 42.5086C160.21 42.5057 162.318 42.3803 164.33 42.5438C161.67 42.7708 158.899 42.6193 156.229 42.5689L156.211 31.2144Z" fill="#37B36D"/>
<path d="M207.713 134.547L209.402 134.502C209.413 136.679 209.555 138.946 209.404 141.113C209.375 141.526 209.449 141.677 209.133 141.957C208.625 142.018 208.279 141.907 207.797 141.751C207.109 141.249 206.555 140.752 206.186 139.969C205.671 138.874 205.526 137.455 205.977 136.314C206.326 135.431 206.846 134.906 207.713 134.547Z" fill="#F7DBBD"/>
<path d="M243.395 134.171C244.24 134.192 244.879 134.319 245.585 134.812C245.691 134.885 245.793 134.963 245.892 135.047C245.99 135.13 246.084 135.219 246.173 135.312C246.263 135.405 246.347 135.502 246.427 135.604C246.506 135.705 246.58 135.811 246.649 135.92C246.717 136.029 246.78 136.142 246.837 136.257C246.894 136.373 246.946 136.491 246.991 136.612C247.036 136.733 247.075 136.855 247.108 136.98C247.14 137.105 247.167 137.231 247.186 137.359C247.395 138.665 246.958 139.751 246.184 140.778C245.664 141.162 245.128 141.479 244.492 141.631C244.081 141.73 243.873 141.727 243.51 141.52C243.148 139.708 243.407 136.184 243.395 134.171Z" fill="#F7DBBD"/>
<path d="M127.148 265.934C127.227 265.308 127.256 264.628 127.79 264.2C128.649 263.511 140.524 263.845 142.497 263.85L142.051 265.925C137.142 266.235 132.077 265.899 127.148 265.934Z" fill="#FEFEFE"/>
<path d="M269.401 246.052L271.347 246.017C271.336 247.954 271.297 249.89 271.23 251.826L266.387 251.846C265.895 251.854 265.198 251.951 264.832 251.615C264.332 250.041 264.624 247.896 264.665 246.248C266.233 246.076 267.825 246.087 269.401 246.052Z" fill="#FEFEFE"/>
<path d="M258.25 263.703L266.692 263.673C268.48 263.668 270.414 263.54 272.179 263.84C272.108 264.718 271.867 265.399 271.164 265.973C270.805 266.266 270.392 266.522 269.994 266.759C267.553 266.781 260.729 267.127 258.702 266.679L258.25 263.703Z" fill="#FEFEFE"/>
<path d="M272.18 263.84C272.886 264.202 273.466 264.675 273.738 265.447C274.02 266.246 273.974 267.413 273.606 268.178C273.274 268.868 272.643 269.314 271.915 269.516C269.841 270.094 261.472 269.709 258.735 269.721C258.732 268.716 258.783 267.679 258.703 266.679C260.73 267.127 267.553 266.781 269.994 266.759C270.393 266.522 270.805 266.266 271.165 265.973C271.867 265.399 272.108 264.718 272.18 263.84Z" fill="#C3D0DD"/>
<path d="M127.148 265.934C132.077 265.899 137.142 266.235 142.051 265.925C141.874 267.075 141.829 268.247 141.755 269.407L133.834 269.433C132.425 269.438 130.888 269.564 129.495 269.376C128.991 269.308 128.434 269.213 128.03 268.879C127.169 268.165 127.197 266.95 127.148 265.934Z" fill="#C3D0DD"/>
<path d="M241.576 118.507C242.975 119.09 244.184 119.936 244.899 121.31C246.201 123.812 245.396 127.009 244.566 129.537C244.313 130.304 243.84 132.016 243.098 132.39C242.752 132.268 242.808 132.253 242.627 131.961C241.537 128.846 240.351 126.775 237.809 124.619C239.733 122.795 240.796 121.032 241.576 118.507Z" fill="#FB9E2E"/>
<path d="M221.559 158.631C224.496 159.377 227.913 159.325 230.836 158.555C230.848 161.117 231.598 163.092 229.905 165.355C228.819 166.267 227.708 166.884 226.246 166.824C224.894 166.768 223.492 166.119 222.588 165.11C221.011 163.348 221.481 160.803 221.559 158.631Z" fill="#F7DBBD"/>
<path d="M233.139 162.309C242.004 164.595 251.16 169.758 255.919 177.861C256.17 178.297 256.409 178.741 256.634 179.192C256.859 179.643 257.071 180.1 257.269 180.563C257.466 181.027 257.65 181.496 257.82 181.97C257.99 182.444 258.146 182.924 258.287 183.407C258.428 183.891 258.555 184.378 258.667 184.87C258.779 185.361 258.876 185.855 258.959 186.352C259.042 186.85 259.109 187.349 259.162 187.85C259.215 188.351 259.253 188.853 259.276 189.357L259.123 189.892C258.874 189.814 258.801 189.651 258.706 189.417C258.322 188.47 258.14 187.412 257.833 186.435C257.214 184.459 256.302 182.489 255.258 180.702C251.486 174.254 244.319 168.821 237.35 166.229C235.798 165.652 234.175 165.387 232.578 164.971C232.841 164.088 232.997 163.217 233.139 162.309Z" fill="#CFF3E8"/>
<path d="M174.406 263.555L218.461 263.585L218.45 266.032C213.307 265.927 208.151 266.021 203.006 266.01L174.984 265.926L174.406 263.555Z" fill="#FEFEFE"/>
<path d="M192.973 190.778C193.664 187.152 194.577 183.8 196.295 180.511C199.843 173.72 205.346 167.923 212.355 164.681C214.58 163.652 216.935 162.94 219.27 162.209C219.5 163.218 219.812 164.156 220.207 165.111C212.024 167.456 203.278 174.678 199.146 182.092C197.822 184.467 196.096 188.046 195.834 190.761L192.973 190.778Z" fill="#CFF3E8"/>
<path d="M238.855 113.456C239.744 114.98 240.059 116.467 239.572 118.202C238.465 122.143 234.439 124.888 231.031 126.695C225.597 129.576 218.788 130.956 212.805 129.054C210.586 128.348 208.57 127.275 206.977 125.556C214.06 125.961 220.79 125.545 227.5 123.028C230.865 121.767 235.002 119.612 237.178 116.642C237.891 115.668 238.358 114.549 238.855 113.456Z" fill="#FB9E2E"/>
<path d="M174.984 265.926L203.006 266.01C208.151 266.021 213.307 265.926 218.45 266.032L218.422 269.708L175.135 269.592C175.135 268.361 175.137 267.15 174.984 265.926Z" fill="#C3D0DD"/>
<path d="M127.273 195.679C127.663 198.344 127.339 201.346 127.315 204.057C127.273 208.776 127.324 213.498 127.337 218.217L116.258 218.285C116.652 217.662 116.363 203.983 116.352 202.039C119.964 202.061 123.577 202.058 127.189 202.03C127.19 199.935 127.076 197.762 127.273 195.679Z" fill="#C3D0DD"/>
<path d="M245.58 210.578C247.682 214.098 249.688 217.708 251.674 221.295C253.459 224.522 255.233 227.625 256.619 231.054C249.642 231.096 242.665 231.098 235.688 231.059C237.737 226.403 240.039 221.85 242.319 217.303C243.373 215.202 244.961 212.831 245.58 210.578Z" fill="#78BFF7"/>
<path d="M242.792 208.859C243.546 208.836 244.255 208.864 244.815 209.442C245.133 209.771 245.371 210.173 245.578 210.578C244.959 212.831 243.371 215.202 242.317 217.303C240.037 221.85 237.735 226.403 235.686 231.059C234.405 231.07 233.125 231.066 231.845 231.046C230.547 231.056 227.82 231.421 226.805 230.681C226.345 230.346 226.225 229.897 226.158 229.353C225.83 226.673 226.114 222.476 226.122 219.64C226.129 216.843 225.901 213.934 226.08 211.151C226.117 210.579 226.175 209.798 226.564 209.34C226.83 209.027 227.353 208.966 227.745 208.928C229.103 208.797 230.536 208.903 231.9 208.906C235.516 208.914 239.183 209.03 242.792 208.859Z" fill="#78BFF7"/>
<path d="M242.794 208.859C243.549 208.836 244.258 208.864 244.817 209.442C245.136 209.771 245.373 210.173 245.58 210.578C244.962 212.831 243.373 215.202 242.32 217.303C240.04 221.85 237.737 226.403 235.688 231.059C234.408 231.07 233.128 231.066 231.848 231.046C232.588 228.526 234.212 225.942 235.405 223.605C237.898 218.722 240.481 213.826 242.794 208.859Z" fill="#FEFEFE"/>
<path d="M206.977 125.556C206.769 125.277 206.659 125.203 206.683 124.841C206.84 122.449 211.012 117.091 212.805 115.431C217.025 111.523 222.777 109.126 228.574 109.369C232.23 109.523 236.309 110.705 238.856 113.456C238.358 114.549 237.892 115.668 237.179 116.642C235.002 119.612 230.865 121.767 227.501 123.028C220.791 125.545 214.061 125.961 206.977 125.556Z" fill="#FEC06A"/>
<path d="M226.791 233.017C229.573 233.218 232.424 233.104 235.215 233.11L250.368 233.148C253.575 233.159 257.277 232.855 260.397 233.617C263.445 234.362 266.694 236.272 268.758 238.644C270.074 240.155 270.932 241.808 271.395 243.759C269.555 243.884 266.032 243.617 264.525 243.945C264.071 244.044 263.671 244.232 263.353 244.578C262.197 245.838 262.57 248.827 262.587 250.45C258.235 248.044 253.932 245.641 248.991 244.685C245.003 243.913 239.843 244.288 235.73 244.349C234.098 244.374 232.423 244.483 230.804 244.234C229.767 244.074 228.727 243.731 227.862 243.124C226.693 242.304 226.04 241.108 225.823 239.709C225.522 237.769 225.607 234.648 226.791 233.017Z" fill="#FEC06A"/>
<path d="M157.05 254.53C160.818 254.086 164.3 255.213 167.313 257.49C170.321 259.763 172.435 263.03 172.945 266.8C173.484 270.788 171.959 274.957 169.556 278.102C167.106 281.308 163.733 282.904 159.787 283.415C159.702 283.43 159.618 283.448 159.533 283.461C156.159 283.962 152.986 282.947 150.273 280.944C147.016 278.539 144.653 274.582 144.087 270.577C143.599 267.119 144.365 263.463 146.488 260.655C149.084 257.22 152.819 255.109 157.05 254.53Z" fill="#1D3C6A"/>
<path d="M158.221 255.69C160.485 255.412 162.775 256.319 164.645 257.544C166.907 259.028 168.49 261.172 169.01 263.848C169.636 267.075 168.709 270.91 166.879 273.611C165.002 276.383 162.418 277.91 159.17 278.516C156.833 278.565 154.764 278.368 152.753 277.039C150.215 275.361 148.345 272.544 147.78 269.557C147.209 266.533 147.914 263.486 149.68 260.975C151.685 258.123 154.808 256.267 158.221 255.69Z" fill="#4F87C7"/>
<path d="M158.495 261.552C160.285 261.539 162.068 262.013 163.522 263.08C165.278 264.367 166.364 266.315 166.643 268.462C166.927 270.642 166.421 272.863 165.003 274.578C163.536 276.351 161.549 277.166 159.322 277.419C157.433 277.379 155.845 277.006 154.305 275.852C152.631 274.599 151.397 272.675 151.127 270.587C150.852 268.465 151.468 266.168 152.818 264.504C154.277 262.707 156.25 261.82 158.495 261.552Z" fill="#041F54"/>
<path d="M158.002 263.434C159.338 263.336 160.57 263.535 161.757 264.187C163.237 265 164.434 266.419 164.853 268.069C164.877 268.163 164.897 268.258 164.916 268.354C164.934 268.449 164.95 268.545 164.964 268.641C164.978 268.738 164.99 268.834 164.999 268.931C165.008 269.028 165.014 269.125 165.019 269.222C165.023 269.319 165.025 269.417 165.024 269.514C165.024 269.611 165.021 269.708 165.016 269.806C165.011 269.903 165.003 270 164.993 270.097C164.983 270.193 164.97 270.29 164.956 270.386C164.941 270.482 164.924 270.578 164.904 270.673C164.885 270.769 164.863 270.863 164.839 270.957C164.815 271.052 164.789 271.145 164.76 271.238C164.731 271.331 164.7 271.424 164.667 271.515C164.633 271.606 164.598 271.697 164.56 271.787C164.523 271.876 164.483 271.965 164.441 272.053C164.399 272.141 164.354 272.227 164.308 272.313C164.262 272.398 164.213 272.483 164.163 272.566C163.192 274.161 161.719 274.951 159.969 275.412C158.476 275.571 157.123 275.462 155.792 274.689C155.705 274.638 155.619 274.586 155.535 274.531C155.451 274.476 155.368 274.419 155.287 274.361C155.206 274.302 155.126 274.241 155.047 274.178C154.969 274.116 154.892 274.051 154.817 273.985C154.741 273.918 154.668 273.85 154.596 273.78C154.524 273.71 154.454 273.638 154.386 273.565C154.317 273.491 154.25 273.416 154.186 273.339C154.121 273.262 154.058 273.184 153.997 273.105C153.936 273.025 153.877 272.943 153.82 272.861C153.763 272.778 153.708 272.694 153.655 272.609C153.603 272.524 153.552 272.437 153.503 272.349C153.454 272.261 153.408 272.172 153.364 272.082C153.319 271.992 153.277 271.901 153.237 271.809C153.198 271.717 153.16 271.624 153.125 271.53C153.089 271.436 153.056 271.341 153.026 271.245C152.995 271.15 152.967 271.054 152.941 270.957C152.916 270.862 152.894 270.766 152.875 270.67C152.855 270.574 152.838 270.478 152.823 270.381C152.808 270.284 152.796 270.187 152.785 270.09C152.775 269.992 152.768 269.895 152.763 269.797C152.757 269.699 152.754 269.601 152.754 269.503C152.753 269.405 152.755 269.308 152.76 269.21C152.764 269.112 152.771 269.014 152.78 268.917C152.79 268.819 152.801 268.722 152.815 268.625C152.829 268.528 152.846 268.432 152.865 268.335C152.883 268.239 152.905 268.144 152.928 268.049C152.952 267.954 152.978 267.859 153.006 267.766C153.034 267.672 153.065 267.579 153.097 267.486C153.13 267.394 153.165 267.303 153.203 267.212C153.24 267.121 153.28 267.032 153.321 266.943C153.363 266.855 153.407 266.767 153.453 266.681C153.499 266.594 153.547 266.509 153.598 266.425C154.605 264.734 156.153 263.902 158.002 263.434Z" fill="#FEFEFE"/>
<path d="M241.849 254.096C245.23 254.135 248.394 254.816 251.105 256.933C251.287 257.077 251.466 257.226 251.64 257.379C251.815 257.533 251.986 257.69 252.153 257.852C252.321 258.014 252.484 258.18 252.642 258.35C252.801 258.52 252.956 258.693 253.106 258.871C253.256 259.049 253.402 259.23 253.543 259.415C253.684 259.6 253.821 259.788 253.952 259.98C254.084 260.171 254.211 260.366 254.333 260.564C254.455 260.762 254.573 260.963 254.685 261.167C254.797 261.371 254.904 261.577 255.005 261.786C255.107 261.995 255.204 262.207 255.295 262.421C255.387 262.635 255.473 262.851 255.553 263.069C255.634 263.287 255.709 263.508 255.778 263.729C255.848 263.951 255.912 264.175 255.97 264.4C256.029 264.625 256.082 264.852 256.129 265.08C256.176 265.307 256.218 265.536 256.253 265.766C256.289 265.996 256.319 266.227 256.344 266.458C256.812 270.675 255.758 274.637 253.07 277.947C250.248 281.423 246.736 283.206 242.328 283.652C238.969 283.789 235.841 282.655 233.254 280.531C230.082 277.928 228.033 274.354 227.658 270.247C227.299 266.32 228.673 262.363 231.211 259.376C233.902 256.212 237.739 254.424 241.849 254.096Z" fill="#1D3C6A"/>
<path d="M241.139 255.675C243.996 255.48 246.226 256.194 248.537 257.872C251.156 259.774 252.66 262.476 253.165 265.652C253.631 268.576 252.891 271.012 251.17 273.373C249.029 276.308 246.335 277.95 242.76 278.5C239.993 278.53 237.615 277.982 235.273 276.45C232.805 274.835 230.933 272.314 230.336 269.401C229.77 266.643 230.621 263.728 232.167 261.427C234.151 258.475 237.669 256.331 241.139 255.675Z" fill="#245595"/>
<path d="M241.041 261.537C242.67 261.421 244.143 261.609 245.587 262.423C247.48 263.492 248.893 265.41 249.444 267.504C249.959 269.461 249.571 271.527 248.516 273.239C247.191 275.389 245.239 276.432 242.84 276.983C240.993 277.101 239.299 276.861 237.69 275.898C235.956 274.86 234.786 273.21 234.354 271.239C234.324 271.108 234.298 270.977 234.275 270.845C234.252 270.713 234.233 270.581 234.216 270.447C234.2 270.314 234.187 270.181 234.177 270.048C234.168 269.914 234.161 269.78 234.158 269.646C234.155 269.512 234.156 269.378 234.159 269.245C234.163 269.111 234.17 268.977 234.18 268.843C234.191 268.71 234.204 268.576 234.221 268.444C234.238 268.311 234.258 268.178 234.282 268.046C234.306 267.914 234.332 267.783 234.363 267.653C234.393 267.522 234.426 267.392 234.463 267.264C234.499 267.135 234.539 267.007 234.582 266.88C234.625 266.753 234.671 266.627 234.72 266.502C234.769 266.378 234.822 266.255 234.877 266.133C234.932 266.011 234.991 265.89 235.052 265.771C235.113 265.652 235.178 265.534 235.245 265.418C235.312 265.302 235.382 265.188 235.455 265.076C236.782 263.06 238.731 262.022 241.041 261.537Z" fill="#041F54"/>
<path d="M241.044 263.43C242.32 263.328 243.553 263.545 244.67 264.194C246.124 265.039 247.182 266.513 247.586 268.139C247.971 269.692 247.658 271.308 246.8 272.65C245.816 274.19 244.426 274.937 242.696 275.334C241.345 275.452 240.122 275.329 238.914 274.664C238.828 274.617 238.744 274.568 238.66 274.516C238.576 274.465 238.494 274.411 238.413 274.356C238.332 274.301 238.253 274.243 238.175 274.184C238.097 274.124 238.02 274.063 237.945 274C237.87 273.937 237.797 273.872 237.725 273.805C237.653 273.738 237.583 273.669 237.515 273.599C237.447 273.529 237.38 273.457 237.315 273.383C237.251 273.309 237.188 273.234 237.127 273.157C237.066 273.08 237.007 273.002 236.95 272.922C236.893 272.843 236.838 272.762 236.785 272.679C236.732 272.597 236.681 272.513 236.632 272.428C236.583 272.343 236.536 272.257 236.492 272.17C236.447 272.082 236.405 271.994 236.365 271.904C236.324 271.815 236.286 271.724 236.251 271.633C236.215 271.542 236.182 271.449 236.15 271.357C236.119 271.264 236.091 271.17 236.064 271.075C236.036 270.976 236.011 270.876 235.989 270.775C235.966 270.674 235.946 270.573 235.929 270.471C235.911 270.369 235.896 270.267 235.884 270.165C235.871 270.062 235.862 269.959 235.854 269.856C235.847 269.753 235.843 269.65 235.841 269.547C235.839 269.444 235.84 269.34 235.843 269.237C235.846 269.134 235.852 269.031 235.861 268.928C235.869 268.825 235.88 268.722 235.894 268.62C235.907 268.518 235.924 268.416 235.942 268.314C235.961 268.212 235.983 268.111 236.007 268.011C236.031 267.911 236.057 267.811 236.086 267.712C236.115 267.612 236.146 267.514 236.18 267.417C236.214 267.319 236.251 267.222 236.289 267.127C236.328 267.031 236.369 266.936 236.413 266.843C236.456 266.749 236.502 266.657 236.551 266.565C236.599 266.474 236.65 266.384 236.702 266.295C237.676 264.67 239.27 263.881 241.044 263.43Z" fill="#FEFEFE"/>
<path d="M235.996 125.978C236.138 125.992 236.204 125.988 236.346 126.059C238.22 126.989 240.174 130.916 240.725 132.893C242.015 137.528 241.713 145.33 239.275 149.547C237.329 152.913 233.714 155.558 229.967 156.549C225.832 157.643 221.635 156.756 217.999 154.654C217.254 154.132 216.552 153.586 215.912 152.936C211.66 148.617 211.476 144.113 211.485 138.421C211.485 135.87 211.501 133.319 211.532 130.768C212.935 131.236 214.399 131.61 215.862 131.825C222.748 132.836 230.525 130.071 235.996 125.978Z" fill="#F7DBBD"/>
<path d="M225.829 141.434C225.974 141.471 226.216 141.517 226.348 141.603C226.719 141.846 226.936 142.346 226.979 142.778C227.05 143.5 226.861 143.979 226.417 144.535C226.27 144.504 226.034 144.461 225.901 144.405C225.58 144.27 225.299 144.013 225.206 143.668C225.001 142.908 225.472 142.072 225.829 141.434Z" fill="#041F54"/>
<path d="M233.706 136.114C234.052 136.092 234.417 136.061 234.762 136.099C235.229 136.15 235.7 136.514 235.978 136.88C236.374 137.401 236.509 138.038 236.377 138.677C236.206 139.5 235.758 139.948 235.074 140.389C234.821 140.405 234.562 140.424 234.309 140.403C233.726 140.355 233.158 140.019 232.809 139.555C232.767 139.498 232.727 139.44 232.691 139.379C232.655 139.319 232.622 139.257 232.592 139.193C232.562 139.129 232.536 139.064 232.512 138.997C232.489 138.931 232.469 138.863 232.453 138.795C232.436 138.726 232.423 138.657 232.414 138.587C232.404 138.517 232.398 138.447 232.396 138.377C232.393 138.306 232.395 138.236 232.399 138.165C232.404 138.095 232.412 138.025 232.424 137.956C232.565 137.09 233.015 136.606 233.706 136.114Z" fill="#041F54"/>
<path d="M218.629 135.981C218.942 135.984 219.27 135.977 219.578 136.033C220.104 136.13 220.62 136.596 220.872 137.052C221.179 137.608 221.198 138.271 220.985 138.863C220.711 139.623 220.256 139.935 219.556 140.284C219.163 140.312 218.696 140.322 218.318 140.198C218.258 140.178 218.199 140.155 218.141 140.129C218.083 140.104 218.026 140.075 217.971 140.043C217.916 140.012 217.862 139.978 217.81 139.942C217.758 139.905 217.708 139.866 217.66 139.824C217.612 139.783 217.566 139.739 217.523 139.693C217.479 139.647 217.438 139.599 217.399 139.549C217.359 139.499 217.323 139.447 217.289 139.393C217.255 139.339 217.224 139.284 217.195 139.228C216.93 138.706 216.915 138.121 217.1 137.57C217.377 136.746 217.877 136.358 218.629 135.981Z" fill="#041F54"/>
<path d="M222.005 147.004C223.947 147.502 223.86 149.469 226.777 149.452C228.65 149.44 229.748 147.377 231.211 147.499C231.468 147.713 231.545 147.782 231.65 148.114C231.817 148.638 231.64 148.883 231.402 149.312C230.367 150.276 229.254 150.987 227.837 151.229C226.109 151.524 223.976 150.993 222.566 149.939C222.023 149.534 221.541 148.961 221.462 148.265C221.399 147.709 221.678 147.403 222.005 147.004Z" fill="#041F54"/>
<path d="M175.023 271.513L225.555 271.599C225.723 272.374 225.882 273.163 226.122 273.919C227.677 278.793 231.12 282.164 235.565 284.476L225.999 284.456L183.58 284.4C177.45 284.383 171.307 284.499 165.18 284.374C165.626 284.156 166.067 283.925 166.5 283.682C171.291 280.934 173.604 276.66 175.023 271.513Z" fill="#FEFEFE"/>
<path d="M220.31 203.296C228.463 203.237 236.651 203.159 244.801 203.348C245.179 203.8 245.52 204.288 245.871 204.762C245.482 205.472 245.077 206.589 244.316 206.909L233.304 206.881C231.289 206.871 228.918 206.624 226.944 207.01C226.293 207.138 225.837 207.463 225.383 207.936C224.886 208.455 224.427 209.141 224.274 209.852C223.839 211.869 224.126 214.793 224.123 216.909C224.117 220.808 223.983 224.758 224.137 228.651C224.195 230.118 224.382 231.173 225.54 232.19C225.925 232.528 226.331 232.796 226.791 233.016C225.607 234.648 225.523 237.768 225.823 239.709C226.04 241.107 226.694 242.304 227.863 243.124C228.727 243.731 229.767 244.074 230.805 244.234C232.423 244.483 234.098 244.373 235.731 244.349C239.844 244.288 245.003 243.913 248.991 244.685C253.932 245.641 258.235 248.043 262.588 250.45C262.568 251.442 262.608 252.42 263.345 253.17C264.692 254.543 269.19 253.997 271.142 254.002C271.158 256.534 271.119 259.069 271.106 261.601C266.588 261.451 262.027 261.587 257.505 261.596C256.703 259.944 255.712 258.412 254.435 257.086C254.242 256.889 254.045 256.698 253.842 256.511C253.64 256.324 253.433 256.142 253.221 255.965C253.01 255.788 252.795 255.616 252.575 255.449C252.355 255.283 252.132 255.122 251.904 254.966C251.677 254.811 251.446 254.66 251.211 254.516C250.976 254.372 250.738 254.233 250.497 254.1C250.255 253.967 250.011 253.84 249.763 253.719C249.515 253.598 249.265 253.484 249.012 253.375C248.758 253.266 248.503 253.164 248.244 253.067C247.986 252.971 247.726 252.881 247.463 252.797C247.201 252.714 246.936 252.636 246.67 252.565C246.403 252.495 246.135 252.43 245.866 252.373C245.596 252.315 245.326 252.264 245.054 252.219C244.782 252.174 244.509 252.136 244.235 252.105C243.961 252.073 243.687 252.049 243.412 252.031C243.137 252.013 242.861 252.001 242.586 251.997C238.066 251.916 233.658 253.918 230.466 257.068C226.875 260.612 225.394 264.733 225.361 269.718L220.482 269.706C220.31 247.569 220.253 225.432 220.31 203.296Z" fill="#FB9E2E"/>
<path d="M25.3801 44.7393C29.0442 44.7288 32.8051 44.5594 36.4558 44.8322C33.3368 45.0836 30.0969 44.8964 26.9636 44.8893L27.2797 179.709L27.3356 234.406C27.3515 243.245 26.7939 252.224 27.3518 261.039C27.9427 261.956 28.5978 262.567 29.6888 262.805C31.8904 263.286 37.1577 262.962 39.6925 262.951L60.9298 262.902L101.739 262.965L110.778 262.986C112.079 262.993 113.688 263.201 114.945 262.95C115.174 262.906 115.388 262.821 115.586 262.698C116.086 262.381 116.395 261.914 116.484 261.328C116.821 259.096 116.526 256.038 116.517 253.714C116.501 249.307 116.67 244.821 116.451 240.426C120.056 240.611 123.705 240.517 127.315 240.522C127.253 247.676 127.597 254.913 127.235 262.051C126.854 262.366 126.467 262.687 126.14 263.058C124.902 264.461 125.207 266.382 125.299 268.094L56.2109 268.112L36.8735 268.119C33.8237 268.118 30.1798 268.419 27.2064 267.948C26.779 267.88 26.5517 267.887 26.2385 267.572C25.7091 267.041 25.4935 266.247 25.4205 265.521C25.2717 264.039 25.4413 262.427 25.4419 260.931L25.4425 250.129L25.4287 215.453L25.3801 44.7393Z" fill="url(#paint0_linear_9472_27092)"/>
<path d="M220.209 165.112C220.845 166.317 221.666 167.238 222.864 167.911C224.593 168.882 226.705 169.036 228.585 168.435C230.467 167.834 231.701 166.7 232.582 164.971C234.178 165.387 235.801 165.652 237.353 166.229C244.322 168.821 251.49 174.254 255.261 180.703C256.306 182.489 257.218 184.459 257.837 186.435C258.143 187.412 258.326 188.47 258.71 189.417C258.805 189.651 258.878 189.814 259.126 189.892L259.279 189.357C259.304 189.751 259.397 190.052 259.198 190.402C255.848 190.71 251.531 190.385 248.057 190.395C248.073 188.58 248.559 183.262 247.391 182.045C246.974 181.909 246.932 181.91 246.508 182.027C246.391 182.15 246.235 182.246 246.156 182.397C245.726 183.223 246.025 189.122 246.018 190.465L206.758 190.659C206.749 188.885 207.234 183.151 206.152 181.949C205.793 181.797 205.763 181.78 205.385 181.859C204.822 182.384 204.716 183.103 204.685 183.843C204.588 186.137 204.709 188.457 204.666 190.757C201.724 190.754 198.777 190.714 195.836 190.762C196.098 188.047 197.824 184.468 199.148 182.092C203.28 174.679 212.026 167.457 220.209 165.112Z" fill="#A6E3C5"/>
<path d="M52.6408 25.1914C52.617 29.4074 52.6209 33.6233 52.6525 37.8392L153.793 37.8333C153.723 41.3032 154.113 45.9494 153.673 49.2755C153.447 50.9858 152.679 52.4416 151.274 53.4729C150.467 54.0655 149.415 54.4347 148.419 54.5032C146.028 54.6676 143.58 54.5557 141.182 54.5489L128.439 54.5313L87.6362 54.5328L66.9685 54.5334C64.3033 54.539 59.5145 54.8434 57.103 54.4183C55.6271 54.1581 54.2451 52.9353 53.438 51.713C53.029 51.0937 52.7574 50.4242 52.6599 49.6868C52.2477 46.5702 52.5849 43.1404 52.5746 39.9854C52.5309 36.6804 52.5069 33.3752 52.5028 30.0699C52.4981 28.5093 52.3297 26.7187 52.6408 25.1914Z" fill="#37B36D"/>
<path d="M158.196 31.2097L179.937 31.2135C182.849 31.2088 187.428 30.8672 190.11 31.3128C191.291 31.5091 192.48 32.1686 193.338 32.993C193.477 33.1266 193.61 33.2654 193.737 33.4093C193.865 33.5535 193.986 33.7024 194.102 33.8561C194.217 34.0098 194.327 34.1679 194.43 34.3304C194.533 34.4927 194.629 34.6589 194.719 34.829C194.809 34.999 194.892 35.1723 194.968 35.3491C195.045 35.5256 195.114 35.705 195.176 35.8873C195.237 36.0693 195.292 36.2536 195.339 36.4401C195.387 36.6264 195.426 36.8144 195.459 37.004C195.808 38.9672 195.633 41.1944 195.638 43.1907L195.661 53.6813L195.738 91.7927L195.691 148.787L195.801 167.575C195.814 170.587 196.065 173.833 195.734 176.821C195.578 178.223 194.244 179.713 193.694 181.047C192.397 184.197 191.387 187.388 190.881 190.766L182.8 190.766L182.932 91.2827L182.923 58.9773L182.918 48.9405C182.917 46.943 183.016 44.879 182.835 42.8921C181.843 42.1418 166.71 42.5432 164.332 42.5435C162.32 42.38 160.212 42.5054 158.189 42.5083C158.088 38.7745 158.065 34.9413 158.196 31.2097Z" fill="#006C2F"/>
<path d="M52.6404 25.1914C52.95 23.704 53.715 22.3771 55.028 21.5548C55.7069 21.1298 56.4718 20.9539 57.2584 20.858C59.2515 20.6149 61.3685 20.7606 63.3806 20.7664L74.7797 20.8169C76.4045 20.8247 78.564 21.0743 80.1249 20.596C80.6045 20.449 80.7826 20.2513 80.9669 19.7872C81.953 17.3012 82.3875 15.0696 83.8913 12.7352C89.0927 4.66174 100.001 1.12942 109.114 3.5075C114.735 4.97458 119.75 8.42994 122.669 13.5135C123.292 14.5979 123.861 15.7918 124.222 16.9906C124.499 17.912 124.605 18.9753 125.052 19.8297C125.238 20.1846 125.544 20.4934 125.927 20.6268C127.279 21.0978 129.446 20.8448 130.88 20.8393C134.106 20.8268 148.384 20.3967 150.599 21.2187C151.557 21.5744 152.37 22.3502 152.911 23.2027C153.273 23.774 153.487 24.3479 153.612 25.0103C153.905 26.5631 153.784 28.2781 153.785 29.854L153.792 37.8333L52.6521 37.8391C52.6204 33.6231 52.6165 29.4072 52.6404 25.1914Z" fill="#37B36D"/>
<path d="M102.127 9.30185C102.279 9.28319 102.431 9.26792 102.584 9.25603C102.736 9.24411 102.889 9.23559 103.042 9.23045C103.195 9.22531 103.348 9.22356 103.501 9.22521C103.654 9.22685 103.807 9.23188 103.96 9.24029C104.113 9.24871 104.265 9.26051 104.418 9.27568C104.57 9.29086 104.722 9.30939 104.873 9.33129C105.024 9.3532 105.175 9.37846 105.326 9.40705C105.476 9.43564 105.626 9.46755 105.775 9.50276C105.924 9.53798 106.072 9.57648 106.219 9.61825C106.366 9.66005 106.513 9.70507 106.658 9.75331C106.803 9.80157 106.947 9.85303 107.09 9.90768C107.233 9.96232 107.375 10.0201 107.515 10.081C107.656 10.1419 107.795 10.2059 107.932 10.273C108.07 10.3401 108.206 10.4102 108.34 10.4833C108.475 10.5564 108.607 10.6325 108.739 10.7114C108.87 10.7904 108.999 10.8723 109.126 10.957C111.688 12.6422 113.368 15.1322 113.947 18.1442C114.47 20.8623 113.729 23.664 112.186 25.936C110.355 28.6327 107.833 29.9253 104.706 30.5467C102.086 30.9276 99.271 30.2901 97.1173 28.7403C94.7751 27.0542 92.9619 24.3613 92.5119 21.4893C92.0786 18.7268 92.8678 15.9544 94.5076 13.7155C96.3966 11.1366 99.0152 9.79878 102.127 9.30185Z" fill="#041F54"/>
<path d="M111.294 17.96C111.737 20.1418 111.496 22.5311 110.269 24.431C109.065 26.2963 107.106 27.494 104.946 27.9027C102.72 28.3237 100.503 27.9305 98.631 26.6195C96.8321 25.36 95.4689 23.4416 95.0857 21.2596C94.922 20.3277 94.929 19.3251 95.1534 18.4044C95.3415 19.0051 95.4977 19.6322 95.7619 20.2052C95.8148 20.3192 95.8706 20.4317 95.9292 20.5428C95.9878 20.654 96.0491 20.7636 96.1132 20.8716C96.1772 20.9796 96.244 21.086 96.3136 21.1907C96.3829 21.2953 96.455 21.3982 96.5298 21.4993C96.6044 21.6003 96.6814 21.6994 96.7609 21.7966C96.8406 21.8938 96.9227 21.9889 97.007 22.0819C97.0914 22.1749 97.1781 22.2658 97.2672 22.3544C97.3562 22.4431 97.4475 22.5295 97.5408 22.6137C97.634 22.6977 97.7293 22.7793 97.8268 22.8586C97.9242 22.9379 98.0236 23.0147 98.125 23.0889C98.2264 23.1631 98.3295 23.2348 98.4344 23.3039C98.5393 23.3731 98.6458 23.4395 98.754 23.5032C98.8624 23.5668 98.9723 23.6278 99.0836 23.686C99.1949 23.7442 99.3076 23.7996 99.4217 23.8521C99.5359 23.9046 99.6514 23.9542 99.768 24.0009C99.8846 24.0476 100.002 24.0913 100.121 24.1322C102.349 24.8746 104.936 24.5001 107.009 23.4598C109.439 22.2404 110.474 20.4449 111.294 17.96Z" fill="#37B36D"/>
<path d="M95.1523 18.4043C95.3038 17.6238 95.5209 16.8867 95.8848 16.1761C96.8905 14.2131 98.7046 12.7685 100.802 12.1222C102.966 11.455 105.253 11.6729 107.228 12.7783C109.323 13.9502 110.634 15.6588 111.293 17.9599C110.473 20.4448 109.438 22.2403 107.008 23.4597C104.935 24.5 102.348 24.8744 100.12 24.1321C100.001 24.0912 99.8835 24.0475 99.7669 24.0008C99.6503 23.9541 99.5349 23.9045 99.4206 23.852C99.3065 23.7994 99.1939 23.7441 99.0825 23.6859C98.9712 23.6277 98.8613 23.5667 98.7529 23.5031C98.6447 23.4394 98.5382 23.373 98.4333 23.3038C98.3284 23.2349 98.2253 23.1632 98.1239 23.0888C98.0226 23.0146 97.9231 22.9378 97.8257 22.8585C97.7282 22.7792 97.6329 22.6976 97.5397 22.6136C97.4464 22.5294 97.3552 22.443 97.2661 22.3543C97.177 22.2657 97.0903 22.1748 97.006 22.0818C96.9216 21.9888 96.8396 21.8937 96.7599 21.7965C96.6804 21.6993 96.6033 21.6002 96.5287 21.4992C96.4539 21.3981 96.3818 21.2952 96.3125 21.1906C96.243 21.0859 96.1762 20.9795 96.1121 20.8715C96.048 20.7634 95.9867 20.6539 95.9281 20.5427C95.8695 20.4316 95.8138 20.3191 95.7608 20.2051C95.4966 19.6321 95.3404 19.005 95.1523 18.4043Z" fill="#FEFEFE"/>
<path d="M151.912 284.381C141.168 284.498 130.41 284.391 119.665 284.379L62.9458 284.36L32.1466 284.381L22.4798 284.401C20.5231 284.405 18.5169 284.485 16.5667 284.308C14.9731 284.163 13.0525 283.126 11.9116 282.008C10.423 280.548 9.66343 278.526 9.50637 276.474C9.29391 273.7 9.473 270.778 9.4711 267.991L9.46787 250.628L9.4694 198.38L9.48551 42.1947C9.49568 39.2743 9.6714 36.3154 11.9262 34.1512C12.0772 34.0078 12.2329 33.8699 12.3933 33.7372C12.5537 33.6046 12.7185 33.4776 12.8875 33.3561C13.0566 33.2348 13.2296 33.1193 13.4066 33.0095C13.5835 32.8999 13.764 32.7965 13.948 32.6992C14.132 32.602 14.3192 32.5111 14.5094 32.4265C14.6996 32.3419 14.8925 32.264 15.088 32.1927C15.2835 32.1212 15.4813 32.0566 15.6812 31.9988C15.8812 31.9407 16.0828 31.8897 16.2863 31.8455C19.285 31.2221 25.1678 31.5681 28.5141 31.571C35.7123 31.5778 42.9185 31.4978 50.1159 31.6065L50.1636 42.5204L34.0363 42.4812C31.22 42.4782 28.2935 42.3025 25.4918 42.5248C24.7453 42.584 23.9373 42.6839 23.2902 43.0815C22.9304 46.7623 23.1862 51.9754 23.1788 55.7831L23.1923 82.0809L23.2342 162.155L23.2351 239.26L23.2465 257.496C23.2427 259.979 22.9234 265.035 23.4487 267.186C23.7589 268.458 24.5889 269.225 25.6799 269.871C26.2925 270.099 26.8618 270.288 27.5162 270.359C30.8294 270.718 34.3858 270.453 37.7253 270.447L57.6613 270.423L125.549 270.396C126.865 270.403 127.765 271.273 128.985 271.391C130.551 271.543 132.167 271.475 133.741 271.478L141.929 271.484C142.741 274.298 143.665 276.754 145.463 279.104C147.387 281.369 149.152 283.191 151.912 284.381Z" fill="#006C2F"/>
<path d="M25.6791 269.87C26.2917 270.099 26.861 270.287 27.5155 270.358C30.8286 270.717 34.385 270.452 37.7245 270.446L57.6605 270.422L125.548 270.395C126.864 270.402 127.764 271.272 128.984 271.39C130.55 271.542 132.167 271.474 133.74 271.477L141.928 271.483C142.74 274.297 143.665 276.753 145.462 279.103L61.0006 279.094L40.7594 279.091C37.8792 279.092 32.9169 279.434 30.2295 278.841C28.8543 278.538 27.3321 277.227 26.5809 276.083C25.4509 274.363 25.2725 271.854 25.6791 269.87Z" fill="#006C2F"/>
<path d="M130.222 192.82C133.993 192.64 137.811 192.769 141.588 192.773L162.005 192.794L218.259 192.825C218.371 195.469 218.29 198.157 218.276 200.804L218.23 214.867L218.361 261.63L207.467 261.587L173.658 261.59C171.804 258.152 169.402 256.045 165.896 254.381C161.609 252.346 157.537 251.451 152.948 253.126C148.606 254.711 145.138 257.596 143.201 261.813C138.61 261.731 134.007 261.792 129.414 261.789C129.31 246.35 129.297 230.911 129.375 215.473L129.327 201.934C129.314 199.489 129.177 196.966 129.344 194.53C129.401 193.689 129.594 193.366 130.222 192.82Z" fill="#78BFF7"/>
<path d="M140.578 208.255L152.302 208.247C153.585 208.247 155.212 208.003 156.446 208.252C156.91 208.346 157.172 208.506 157.431 208.914C157.509 209.291 157.53 209.69 157.34 210.043C157.146 210.404 156.866 210.472 156.506 210.592C153.103 210.68 149.675 210.563 146.27 210.542C144.632 210.532 142.885 210.71 141.264 210.538C140.688 210.478 140.098 210.338 139.608 210.017C139.281 209.803 139.135 209.584 139.043 209.205C139.101 208.987 139.119 208.847 139.298 208.685C139.684 208.336 140.082 208.292 140.578 208.255Z" fill="#FEFEFE"/>
<path d="M141.783 234.185C144.743 234.118 147.712 234.154 150.672 234.147C152.445 234.142 154.341 234.006 156.097 234.219C156.464 234.264 156.853 234.339 157.123 234.615C157.399 234.897 157.518 235.273 157.534 235.66C157.566 236.4 157.305 237.014 156.823 237.559C156.349 237.821 155.848 237.769 155.323 237.772C152.638 237.769 149.951 237.696 147.267 237.716C145.448 237.731 143.518 237.899 141.711 237.745C141.218 237.703 140.709 237.612 140.262 237.392C139.884 237.206 139.537 236.888 139.451 236.457C139.363 236.017 139.51 235.31 139.788 234.951C140.323 234.263 140.983 234.244 141.783 234.185Z" fill="#FEFEFE"/>
<path d="M140.553 199.895C143.507 199.774 146.492 199.842 149.449 199.832C151.474 199.825 154.065 199.526 156.018 199.993C156.587 200.129 157.073 200.479 157.339 201.008C157.54 201.407 157.592 201.988 157.421 202.408C157.169 203.026 156.774 203.188 156.199 203.42C152.555 203.632 148.832 203.471 145.179 203.475C143.874 203.477 142.217 203.713 140.961 203.465C140.337 203.342 139.707 203.006 139.404 202.42C139.16 201.946 139.154 201.529 139.348 201.036C139.567 200.478 140.038 200.145 140.553 199.895Z" fill="#FEFEFE"/>
<path d="M171.042 199.911C173.007 199.896 184.838 199.539 185.634 200.144C185.984 200.41 186.195 200.906 186.264 201.332C186.336 201.768 186.28 202.186 185.977 202.531C185.114 203.512 180.94 203.071 179.609 203.05C177.865 203.04 165.435 203.222 164.895 202.77C164.516 202.453 164.408 201.921 164.389 201.449C164.373 201.039 164.422 200.549 164.776 200.288C165.68 199.623 169.747 199.909 171.042 199.911Z" fill="#FEFEFE"/>
<path d="M165.077 234.423C168.793 234.27 172.54 234.358 176.258 234.361C178.891 234.363 181.602 234.233 184.226 234.418C184.894 234.465 185.654 234.533 186.07 235.135C186.315 235.49 186.345 235.903 186.278 236.315C186.169 236.981 185.879 237.273 185.338 237.645L171.934 237.639C169.831 237.639 167.583 237.796 165.496 237.579C165.064 237.534 164.766 237.488 164.416 237.226C164.147 236.839 164.097 236.537 164.163 236.08C164.275 235.296 164.459 234.911 165.077 234.423Z" fill="#FEFEFE"/>
<path d="M164.99 208.37C167.426 208.207 169.95 208.314 172.393 208.31L186.889 208.322L200.959 208.357C203.381 208.364 205.87 208.25 208.285 208.405C208.721 208.433 209.345 208.506 209.712 208.767C209.876 208.883 210.003 209.046 210.027 209.246C210.088 209.777 209.713 210.16 209.393 210.532C202.24 210.724 195.037 210.489 187.88 210.466C180.6 210.443 173.287 210.626 166.013 210.5C165.609 210.493 165.113 210.487 164.755 210.272C164.484 210.109 164.339 209.855 164.352 209.537C164.373 209.062 164.696 208.708 164.99 208.37Z" fill="#FEFEFE"/>
<path d="M164.765 243.404C166.778 243.217 168.897 243.331 170.921 243.332L182.184 243.341L198.578 243.373C201.602 243.375 204.663 243.274 207.683 243.392C208.303 243.416 208.912 243.466 209.489 243.707C209.752 244 209.865 244.107 209.883 244.526C209.903 244.991 209.637 245.248 209.362 245.568C207.142 245.737 204.859 245.663 202.631 245.668L190.797 245.658L173.934 245.646C171.211 245.652 168.477 245.748 165.756 245.696C165.441 245.69 165.087 245.659 164.815 245.485C164.492 245.28 164.303 245.04 164.271 244.649C164.229 244.143 164.425 243.76 164.765 243.404Z" fill="#FEFEFE"/>
<path d="M36.457 44.8322C40.9916 44.7927 45.5265 44.8618 50.061 44.8076C50.0619 46.6855 49.9181 48.7413 50.2031 50.5899C50.4568 51.2354 50.6777 51.8978 51.0214 52.503C52.1414 54.475 53.8693 56.1019 56.1167 56.6652C58.0283 57.1448 64.471 56.8434 66.8168 56.8404L90.3029 56.839L128.648 56.812L141.513 56.8026C143.895 56.7977 146.318 56.8812 148.694 56.7235C149.845 56.6471 151.117 56.1769 152.104 55.59C154.746 54.018 156.017 51.2594 156.067 48.2737C156.085 47.2147 155.94 46.097 156.185 45.0622C156.532 44.8141 157.066 44.8917 157.479 44.8876L172.078 44.8694C174.895 44.8721 177.748 44.7678 180.559 44.911L180.516 143.109L180.548 174.825C180.537 180.078 180.763 185.48 180.401 190.716C168.67 190.846 156.928 190.751 145.195 190.751L134.887 190.746C133.441 190.745 131.813 190.591 130.384 190.75C129.562 190.841 128.704 191.537 128.145 192.1C126.799 193.456 127.463 193.444 125.35 193.488C115.382 193.694 105.371 193.448 95.3974 193.469C92.0578 193.476 88.1883 193.269 84.9053 193.476C84.6176 193.495 84.3492 193.567 84.1245 193.761C83.901 193.954 83.8055 194.218 83.6924 194.482C83.712 194.889 83.6906 194.992 84.0278 195.274C84.4093 195.592 85.2135 195.656 85.6887 195.683C88.7177 195.855 91.8876 195.644 94.9304 195.641L116.255 195.641C119.909 195.643 123.627 195.499 127.274 195.678C127.077 197.762 127.19 199.935 127.189 202.03C123.577 202.057 119.965 202.06 116.353 202.039C116.363 203.983 116.653 217.662 116.258 218.284L95.5005 218.335C92.1475 218.327 88.6471 218.064 85.3081 218.303C84.8189 218.338 84.5332 218.393 84.1462 218.717C83.9634 219.072 83.8611 219.377 83.9751 219.777C84.0756 220.131 84.2789 220.294 84.6103 220.419C85.6075 220.792 101.264 220.39 103.874 220.385C108.054 220.378 112.242 220.487 116.42 220.455C120.05 220.442 123.697 220.367 127.325 220.479L127.282 238.207L116.5 238.23L95.4615 238.201C92.5852 238.196 88.3608 237.917 85.6588 238.231C85.1423 238.29 84.3483 238.459 84.0117 238.895C83.7668 239.212 83.855 239.452 83.8948 239.82C84.1307 240.151 84.2414 240.324 84.6609 240.396C86.3364 240.686 91.6031 240.408 93.6199 240.399C101.212 240.365 108.863 240.245 116.452 240.426C116.672 244.821 116.502 249.307 116.519 253.714C116.527 256.038 116.822 259.096 116.485 261.328C116.396 261.914 116.087 262.381 115.587 262.698C115.389 262.821 115.175 262.906 114.946 262.95C113.689 263.201 112.081 262.993 110.779 262.986L101.74 262.965L60.9311 262.902L39.6937 262.951C37.159 262.962 31.8917 263.286 29.69 262.805C28.599 262.567 27.9439 261.956 27.353 261.039C26.7952 252.225 27.3527 243.245 27.3369 234.406L27.281 179.709L26.9648 44.8894C30.0981 44.8964 33.3381 45.0836 36.457 44.8322Z" fill="#FEFEFE"/>
<path d="M84.631 91.6265C91.2081 91.4507 97.831 91.6092 104.412 91.6171L111.942 91.6227C112.895 91.6218 113.892 91.5043 114.836 91.577C115.264 91.6098 115.631 91.7762 115.856 92.1652C116.033 92.4717 116.016 92.8291 115.877 93.1458C115.714 93.5161 115.389 93.6198 115.044 93.7411L94.7141 93.6887C91.4917 93.6863 88.0596 93.9708 84.8619 93.6553C84.4751 93.6172 84.2478 93.5445 83.9349 93.2973C83.7808 92.9595 83.6841 92.7957 83.8034 92.4128C83.939 91.9769 84.2627 91.8228 84.631 91.6265Z" fill="#1D3C6A"/>
<path d="M84.4908 136.584C91.0155 136.411 97.6061 136.543 104.135 136.563C107.361 136.572 110.763 136.303 113.971 136.53C114.606 136.574 115.122 136.672 115.66 137.016C115.862 137.363 115.932 137.44 115.855 137.854C115.778 138.274 115.528 138.515 115.201 138.754L94.5214 138.757C92.6329 138.756 90.743 138.721 88.8548 138.737C87.7392 138.746 86.6116 138.852 85.4983 138.782C84.8895 138.743 84.4659 138.636 83.9687 138.284C83.7824 137.946 83.6769 137.77 83.7498 137.362C83.8222 136.959 84.1791 136.779 84.4908 136.584Z" fill="#041F54"/>
<path d="M84.203 183.297C88.7876 183.018 93.522 183.245 98.124 183.251C103.644 183.257 109.218 183.081 114.73 183.26C115.075 183.271 115.624 183.235 115.896 183.461C116.169 183.686 116.334 183.996 116.309 184.356C116.276 184.837 116.11 185.048 115.791 185.384C114.661 185.562 113.406 185.463 112.257 185.464L105.648 185.465C99.0556 185.464 92.4102 185.626 85.8228 185.427C85.3737 185.413 84.5613 185.432 84.1953 185.181C83.9062 184.983 83.7852 184.713 83.7612 184.368C83.7289 183.9 83.9337 183.636 84.203 183.297Z" fill="#041F54"/>
<path d="M84.3656 126.167C87.7511 125.964 91.2433 126.124 94.6385 126.123L114.634 126.131L132.36 126.112C135.427 126.108 138.597 125.941 141.649 126.158C142.083 126.189 143.094 126.161 143.337 126.546C143.532 126.855 143.574 127.208 143.462 127.555C143.323 127.984 143.089 128.126 142.723 128.325C136.321 128.482 129.853 128.224 123.443 128.248C110.882 128.295 98.2983 128.491 85.7399 128.362C85.2887 128.357 84.4781 128.38 84.1127 128.098C83.818 127.87 83.6853 127.615 83.7099 127.239C83.7407 126.772 84.0518 126.473 84.3656 126.167Z" fill="#1D3C6A"/>
<path d="M84.7928 172.798C96.6223 172.543 108.501 172.767 120.335 172.765L134.203 172.74C136.582 172.733 139.048 172.597 141.42 172.75C142.071 172.792 142.79 172.809 143.2 173.385C143.435 173.714 143.36 174.044 143.291 174.405C142.992 174.752 142.934 174.793 142.501 174.938L102.142 174.937L91.4042 174.971C89.4182 174.984 87.3999 175.079 85.4185 174.99C84.7582 174.96 84.3 174.957 83.8304 174.44C83.7073 174.074 83.6733 173.832 83.8415 173.466C84.0217 173.073 84.4225 172.948 84.7928 172.798Z" fill="#041F54"/>
<path d="M84.2054 81.0409C87.8959 80.9518 91.6084 81.0406 95.301 81.0438L116.684 81.0561L133.605 81.0582C136.358 81.0535 139.147 80.9325 141.896 81.0329C142.383 81.0505 142.776 81.0924 143.197 81.3447C143.423 81.6614 143.545 81.8005 143.51 82.2174C143.47 82.6932 143.234 82.9364 142.912 83.2539L102.801 83.227L91.3553 83.2041C89.3127 83.2012 87.2264 83.2894 85.1891 83.1775C84.6838 83.1496 84.2762 83.099 83.8377 82.8397C83.7047 82.6466 83.5869 82.5502 83.5761 82.3059C83.5494 81.7182 83.816 81.4246 84.2054 81.0409Z" fill="#041F54"/>
<path d="M84.3313 101.14C92.1823 101.197 161.788 100.991 162.414 101.271C162.686 101.393 162.917 101.677 162.983 101.965C163.108 102.503 162.897 102.859 162.593 103.263C159.589 103.528 156.381 103.312 153.351 103.307L134.965 103.289L102.265 103.304C96.6914 103.308 91.0951 103.422 85.5243 103.309C84.9392 103.298 84.4725 103.266 83.9727 102.936C83.763 102.615 83.6484 102.463 83.6932 102.054C83.7425 101.606 84.012 101.402 84.3313 101.14Z" fill="#1D3C6A"/>
<path d="M84.1709 146.375C88.8812 146.275 93.6106 146.362 98.3227 146.368L126.681 146.415L150.212 146.39C153.899 146.391 157.626 146.278 161.31 146.406C161.822 146.424 162.497 146.438 162.9 146.801C163.147 147.024 163.265 147.288 163.248 147.621C163.222 148.097 162.937 148.385 162.621 148.703C157.206 148.844 151.756 148.705 146.337 148.687L120.092 148.643L100.041 148.621C95.0869 148.651 90.1008 148.783 85.1485 148.674C84.7407 148.665 84.4738 148.616 84.1067 148.441C83.9119 148.221 83.8011 148.155 83.7376 147.858C83.6148 147.283 83.8829 146.843 84.1709 146.375Z" fill="#041F54"/>
<path d="M116.42 220.456C120.05 220.442 123.698 220.368 127.326 220.479L127.282 238.208L116.5 238.23L116.494 230.328C113.643 230.164 110.734 230.284 107.878 230.289L91.9521 230.307C90.2667 230.304 86.287 230.554 84.8884 230.277C84.4398 230.189 84.216 230.044 83.9553 229.677C83.9145 229.342 83.9637 229.132 84.1014 228.831C84.3191 228.355 84.5336 228.233 84.9927 228.053C87.0593 227.661 92.1508 227.944 94.4711 227.944L116.499 227.943C116.395 225.451 116.534 222.953 116.42 220.456Z" fill="#C3D0DD"/>
<path d="M84.9927 228.053C87.913 228.214 90.8802 228.107 93.8057 228.104L108.753 228.101C111.127 228.102 113.615 227.93 115.977 228.098C116.455 228.132 117.264 228.178 117.624 228.538C117.781 228.696 117.815 229.131 117.774 229.347C117.712 229.67 117.597 229.909 117.319 230.108C117.09 230.271 116.766 230.315 116.494 230.328C113.643 230.163 110.734 230.283 107.878 230.288L91.9521 230.306C90.2667 230.303 86.287 230.553 84.8884 230.277C84.4398 230.188 84.216 230.044 83.9553 229.676C83.9145 229.341 83.9637 229.132 84.1014 228.831C84.3191 228.355 84.5336 228.233 84.9927 228.053Z" fill="#041F54"/>
<path d="M44.6076 77.1199C47.159 76.9222 67.3481 76.957 68.4863 77.3824C69.3476 77.7044 70.1319 78.3829 70.4565 79.2586C70.9083 80.4773 70.8848 99.6114 70.7208 102.012C70.683 102.564 70.6226 103.131 70.3806 103.637C69.9213 104.597 68.9969 104.977 68.0436 105.291C65.5575 105.414 45.5014 105.439 44.3436 105.087C43.3821 104.795 42.4642 104.047 42.0678 103.121C41.5601 101.935 41.6697 83.5327 41.7822 81.1304C41.8124 80.4858 41.8384 79.7704 42.0901 79.1707C42.5383 78.1025 43.5919 77.5324 44.6076 77.1199Z" fill="#041F54"/>
<path d="M45.2672 79.1523C49.6268 79.0322 54.0108 79.1368 58.3737 79.1239C60.5783 79.1175 65.8031 78.765 67.7446 79.2786C67.9945 79.3448 68.3607 79.4731 68.4773 79.7195C68.8623 80.5334 68.7741 101.629 68.4937 102.293C68.3013 102.749 68.0675 102.779 67.6427 102.937L53.4656 102.961C51.0794 102.969 48.5933 103.117 46.217 102.943C45.5473 102.894 44.9686 102.802 44.361 102.498C44.1788 101.979 44.0997 101.494 44.0678 100.945C43.8978 98.009 44.0991 94.9677 44.1149 92.021C44.129 89.3834 43.8035 82.5045 44.3464 80.3963C44.494 79.8224 44.7665 79.4544 45.2672 79.1523Z" fill="#FEC06A"/>
<path d="M44.5576 170.128C49.3816 169.996 54.2476 170.181 59.0763 170.189C61.9614 170.193 65.1615 169.926 68.0001 170.199C68.4797 170.245 68.8764 170.359 69.2704 170.64C69.9601 171.133 70.4145 172.021 70.5442 172.844C70.7918 174.417 70.6638 176.159 70.6652 177.752L70.6477 187.086C70.6483 189.799 70.9934 192.745 70.6816 195.419C70.5979 196.138 70.3655 196.887 69.9249 197.47C69.4272 198.128 68.7296 198.472 67.9315 198.606C64.321 198.579 44.9314 199.031 43.3699 198.28C42.7175 197.966 42.111 197.334 41.9235 196.626C41.4437 194.811 41.756 192.434 41.758 190.552L41.7586 180.371C41.763 178.131 41.5658 175.763 41.7642 173.54C41.8272 172.838 41.9616 172.147 42.3352 171.537C42.873 170.66 43.6002 170.37 44.5576 170.128Z" fill="#041F54"/>
<path d="M44.5774 172.453C48.5656 172.26 52.6326 172.428 56.6287 172.428C59.9914 172.428 63.4379 172.235 66.788 172.448C67.2658 172.478 67.9414 172.489 68.312 172.805C68.5159 173.838 68.5821 195.023 68.3996 195.85C68.3322 196.155 68.3237 196.157 68.0556 196.343C64.4372 196.441 60.7927 196.345 57.1707 196.348C52.8011 196.351 48.4136 196.437 44.0463 196.316C44.0154 195.986 43.9923 195.655 43.9768 195.324C43.7586 190.995 43.9578 186.546 43.966 182.204C43.9716 179.336 43.7149 176.227 44.0586 173.397C44.1104 172.971 44.3035 172.757 44.5774 172.453Z" fill="#FEC06A"/>
<path d="M50.2027 50.5906C50.4564 51.236 50.6773 51.8984 51.021 52.5037C52.141 54.4757 53.8689 56.1025 56.1163 56.6659C58.0279 57.1455 64.4706 56.844 66.8164 56.8411L90.3025 56.8396L128.648 56.8127L141.513 56.8033C143.895 56.7983 146.317 56.8818 148.694 56.7242C149.845 56.6477 151.117 56.1775 152.103 55.5907C154.746 54.0186 156.016 51.26 156.066 48.2744C156.084 47.2153 155.94 46.0976 156.184 45.0629C156.531 44.8147 157.066 44.8924 157.478 44.8883C157.46 44.9753 157.44 45.062 157.423 45.1493C157.234 46.1181 157.324 47.3067 157.335 48.2981C157.394 53.6302 158.625 59.4775 153.591 63.0353C152.549 63.7713 151.275 64.1674 150.008 64.2388C146.992 64.4091 143.916 64.2506 140.894 64.2377L127.226 64.2863L84.2158 64.2758L64.5986 64.25C62.2144 64.2479 58.0555 64.5462 55.8977 64.1372C54.0087 63.7792 52.0818 62.322 51.0582 60.7253C49.6774 58.5717 49.5649 53.3328 50.1368 50.8572C50.1576 50.7679 50.1808 50.6794 50.2027 50.5906Z" fill="#37B36D"/>
<path d="M43.9954 216.994C48.6364 216.855 53.3159 217.025 57.9615 217.016C61.1042 217.01 64.4291 216.733 67.5407 217.023C68.5037 217.112 69.3009 217.464 69.9246 218.221C70.382 218.777 70.5238 219.513 70.587 220.213C70.8592 223.234 70.5941 226.754 70.5993 229.832C70.607 234.465 70.8856 239.279 70.5173 243.891C69.8303 244.885 69.2962 245.3 68.2078 245.788C64.4403 246.041 60.5332 245.825 56.7525 245.819C53.0655 245.813 49.2744 246.006 45.5989 245.797C44.9575 245.76 44.2398 245.681 43.6342 245.465C42.9372 245.216 42.3906 244.495 42.0624 243.856C41.8319 243.407 41.7941 242.913 41.7654 242.416C41.6151 239.811 41.536 220.271 41.9994 218.999C42.368 217.989 43.0453 217.431 43.9954 216.994Z" fill="#041F54"/>
<path d="M44.5195 219.181C48.4391 218.993 52.4311 219.147 56.3581 219.151C59.593 219.155 62.9121 218.99 66.1362 219.197C66.7295 219.235 67.485 219.29 68.0106 219.577C68.2787 219.722 68.2667 219.828 68.337 220.108C68.7832 221.887 68.3651 228.86 68.3516 231.154C68.3305 234.778 68.586 238.511 68.3294 242.121C68.2886 242.696 68.2016 243.054 67.9136 243.554C65.383 243.952 60.0536 243.677 57.3149 243.68L49.5615 243.683C47.9217 243.683 46.1619 243.806 44.5473 243.519C44.1955 243.223 44.1281 242.734 44.0695 242.299C43.7112 239.64 44.0288 235.322 44.0176 232.502L43.9649 224.65C43.9558 223.181 43.8504 221.628 44.0323 220.171C44.085 219.751 44.2719 219.504 44.5195 219.181Z" fill="#FEFEFE"/>
<path d="M59.1475 227.33C60.1378 226.283 61.4113 224.744 62.9558 224.684C63.0396 224.681 63.1232 224.683 63.2066 224.688C63.2902 224.694 63.3732 224.705 63.4556 224.72C63.5381 224.734 63.6195 224.753 63.7 224.776C63.7805 224.8 63.8595 224.827 63.937 224.859C64.0145 224.89 64.0902 224.926 64.164 224.966C64.2377 225.006 64.3091 225.049 64.3782 225.096C64.4473 225.143 64.5139 225.194 64.5777 225.248C64.6416 225.303 64.7023 225.36 64.7599 225.421C65.2805 225.959 65.5486 226.734 65.493 227.478C65.4604 227.909 65.3509 228.295 65.1095 228.655C64.1576 230.075 60.9191 232.855 59.5319 234.175L59.127 234.176C59.4267 233.144 60.8306 232.549 61.2883 231.477C62.0989 230.134 64.0677 229.366 64.5555 227.811C64.7139 227.306 64.7365 226.721 64.4128 226.27C64.1107 225.85 63.5227 225.606 63.0344 225.492C62.4572 225.357 62.0752 225.663 61.6129 225.957C59.1033 228.417 56.3705 230.828 54.0924 233.501C53.9248 232.963 53.7924 232.309 53.4818 231.837C52.7822 231.075 52.2692 230.416 51.1451 230.394C50.5577 230.383 49.9685 230.542 49.5555 230.981C49.239 231.316 49.0805 231.837 49.1222 232.298C49.1676 232.797 49.3805 233.101 49.6677 233.496C51.0352 234.92 52.5965 237.015 54.2717 238.012L53.9377 238.495C51.9804 237.199 50.2091 235.255 48.5989 233.553C48.3027 233.04 48.2248 232.611 48.2629 232.025C48.3083 231.32 48.5421 230.709 49.1011 230.258C49.168 230.205 49.2376 230.155 49.3097 230.108C49.3815 230.061 49.4556 230.019 49.532 229.979C49.6082 229.94 49.6862 229.905 49.7661 229.874C49.8458 229.842 49.9269 229.815 50.0096 229.791C50.092 229.768 50.1754 229.749 50.2597 229.734C50.3441 229.719 50.4291 229.708 50.5146 229.702C50.6002 229.695 50.6857 229.693 50.7713 229.695C50.857 229.697 50.9425 229.703 51.0276 229.713C52.2639 229.86 52.9782 230.71 53.7182 231.611L54.0308 231.9C54.9393 231.825 57.9578 228.32 58.9181 227.519L59.1475 227.33Z" fill="#1D3C6A"/>
<path d="M61.6105 225.957C62.0728 225.662 62.4549 225.357 63.032 225.492C63.5204 225.606 64.1084 225.85 64.4104 226.27C64.7342 226.72 64.7116 227.306 64.5531 227.811C64.0653 229.366 62.0966 230.134 61.2859 231.476C60.8283 232.549 59.4244 233.144 59.1247 234.176L59.5296 234.174C58.4538 235.257 55.7427 238.493 54.2151 238.5C54.122 238.501 54.0285 238.497 53.9353 238.495L54.2693 238.012C52.5941 237.015 51.0329 234.919 49.6653 233.496C49.3782 233.101 49.1652 232.797 49.1198 232.298C49.0782 231.837 49.2367 231.316 49.5531 230.98C49.9662 230.542 50.5554 230.382 51.1428 230.394C52.2669 230.416 52.7799 231.074 53.4795 231.837C53.79 232.309 53.9225 232.962 54.09 233.501C56.3682 230.828 59.101 228.417 61.6105 225.957Z" fill="#4F87C7"/>
<path d="M54.2715 238.012C56.8593 236.228 58.9643 233.593 61.2881 231.477C60.8305 232.549 59.4266 233.144 59.1269 234.176L59.5317 234.175C58.456 235.257 55.7448 238.493 54.2173 238.5C54.1241 238.501 54.0307 238.497 53.9375 238.495L54.2715 238.012Z" fill="#245595"/>
<path d="M44.6762 124.3C49.4788 124.102 54.3497 124.268 59.1591 124.264C61.8785 124.262 64.7495 124.01 67.4478 124.196C68.0575 124.239 68.7421 124.333 69.2961 124.608C69.9284 124.921 70.2922 125.687 70.507 126.321C70.7006 126.893 70.7821 127.492 70.8181 128.093C71.0774 132.391 70.8207 136.841 70.8014 141.158C70.7888 143.98 71.0355 146.928 70.8377 149.737C70.7841 150.499 70.6256 151.276 70.2506 151.949C69.7863 152.784 69.1104 153.186 68.2136 153.437C63.3861 153.593 58.5213 153.451 53.6885 153.452C50.852 153.453 47.8283 153.687 45.0099 153.429C44.4049 153.374 43.894 153.263 43.364 152.957C42.6404 152.541 42.0143 151.805 41.8417 150.975C41.5039 149.35 41.6973 147.43 41.7055 145.762L41.765 135.791C41.7662 133.132 41.4263 130.228 41.7234 127.6C41.8072 126.857 42.0316 126.142 42.4722 125.532C43.0274 124.763 43.7739 124.47 44.6762 124.3Z" fill="#041F54"/>
<path d="M44.9223 126.403C50.39 126.625 55.9394 126.45 61.4164 126.451C63.3193 126.452 65.4102 126.251 67.284 126.441C67.6531 126.478 67.877 126.565 68.1667 126.808C68.4052 127.305 68.4655 127.8 68.5016 128.345C68.675 130.948 68.8684 149.276 68.4357 150.536C68.2818 150.984 68.128 150.995 67.7255 151.195C64.0388 151.377 60.2817 151.228 56.5854 151.238C52.9171 151.249 49.1674 151.424 45.5073 151.25C45.1107 151.231 44.6044 151.257 44.31 150.944C43.9851 150.599 43.908 150.053 43.8858 149.602C43.838 148.635 43.9619 147.635 43.9692 146.663L43.9909 139.193C43.9892 135.754 43.6968 131.195 43.9895 127.892C44.0621 127.073 44.3091 126.908 44.9223 126.403Z" fill="#FEFEFE"/>
<path d="M54.5899 139.108C55.6886 138.178 56.7749 137.211 57.793 136.193C58.5143 135.472 59.2473 134.466 60.0761 133.89C60.4227 133.649 60.7692 133.543 61.1967 133.6C62.0724 133.717 63.8108 135.522 64.2389 136.258C64.3619 136.47 64.3575 136.496 64.4114 136.7C64.3215 136.946 64.3024 137 64.1006 137.185L63.6043 137.18C62.9885 135.884 62.1289 134.933 60.9453 134.131C58.5767 135.839 56.7119 138.306 54.444 140.174L51.0664 136.784L51.3825 136.094C52.4704 137.079 53.5395 138.083 54.5899 139.108Z" fill="#245595"/>
<path d="M47.7891 139.214C48.6088 138.337 50.1855 136.272 51.3797 136.095L51.0636 136.785C50.3345 137.561 49.6002 138.332 48.8607 139.098C50.9007 141.089 52.9901 143.036 54.6908 145.336C56.976 142.829 60.786 138.969 63.6015 137.181L64.0978 137.185C62.6566 138.637 61.0471 139.985 59.5529 141.39C58.0046 142.846 56.4483 144.576 54.7069 145.791C53.7287 145.034 52.892 144.09 52.0011 143.233C50.6013 141.887 49.1663 140.583 47.7891 139.214Z" fill="#1D3C6A"/>
<path d="M60.945 134.131C62.1286 134.933 62.9882 135.885 63.604 137.18C60.7886 138.969 56.9785 142.828 54.6934 145.335C52.9927 143.035 50.9032 141.088 48.8633 139.097C49.6027 138.331 50.337 137.56 51.0661 136.784L54.4437 140.175C56.7116 138.306 58.5764 135.839 60.945 134.131Z" fill="#4F87C7"/>
<defs>
<linearGradient id="paint0_linear_9472_27092" x1="149.916" y1="216.152" x2="-17.9007" y2="134.6" gradientUnits="userSpaceOnUse">
<stop stop-color="#B6C9D4"/>
<stop offset="1" stop-color="#D9D4D0"/>
</linearGradient>
</defs>
</svg>
